<svg xmlns="http://www.w3.org/2000/svg" xmlns:xlink="http://www.w3.org/1999/xlink">

<symbol id="dribbble" fill-rule="evenodd" clip-rule="evenodd" stroke-linejoin="round" stroke-miterlimit="1.414"><path d="M8 16c-4.41 0-8-3.59-8-8s3.59-8 8-8 8 3.59 8 8-3.59 8-8 8zm6.747-6.905c-.234-.074-2.115-.635-4.257-.292.894 2.456 1.258 4.456 1.328 4.872 1.533-1.037 2.624-2.68 2.93-4.58zM10.67 14.3c-.102-.6-.5-2.688-1.46-5.18l-.044.014C5.312 10.477 3.93 13.15 3.806 13.4c1.158.905 2.614 1.444 4.194 1.444.947 0 1.85-.194 2.67-.543zm-7.747-1.72c.155-.266 2.03-3.37 5.555-4.51.09-.03.18-.056.27-.08-.173-.39-.36-.778-.555-1.16-3.413 1.02-6.723.977-7.023.97l-.003.208c0 1.755.665 3.358 1.756 4.57zM1.31 6.61c.307.005 3.122.017 6.318-.832-1.132-2.012-2.353-3.705-2.533-3.952-1.912.902-3.34 2.664-3.784 4.785zM6.4 1.368c.188.253 1.43 1.943 2.548 4 2.43-.91 3.46-2.293 3.582-2.468C11.323 1.827 9.736 1.176 8 1.176c-.55 0-1.087.066-1.6.19zm6.89 2.322c-.145.194-1.29 1.662-3.816 2.694.16.325.31.656.453.99.05.117.1.235.147.352 2.274-.286 4.533.172 4.758.22-.015-1.613-.59-3.094-1.543-4.257z"/></symbol>

<symbol id="facebook" fill-rule="evenodd" clip-rule="evenodd" stroke-linejoin="round" stroke-miterlimit="1.414"><path d="M15.117 0H.883C.395 0 0 .395 0 .883v14.234c0 .488.395.883.883.883h7.663V9.804H6.46V7.39h2.086V5.607c0-2.066 1.262-3.19 3.106-3.19.883 0 1.642.064 1.863.094v2.16h-1.28c-1 0-1.195.48-1.195 1.18v1.54h2.39l-.31 2.42h-2.08V16h4.077c.488 0 .883-.395.883-.883V.883C16 .395 15.605 0 15.117 0" fill-rule="nonzero"/></symbol>

<symbol id="flickr" fill-rule="evenodd" clip-rule="evenodd" stroke-linejoin="round" stroke-miterlimit="1.414"><path d="M0 8c0 2.05 1.662 3.71 3.71 3.71 2.05 0 3.713-1.66 3.713-3.71S5.76 4.29 3.71 4.29C1.663 4.29 0 5.95 0 8zm8.577 0c0 2.05 1.662 3.71 3.712 3.71C14.33 11.71 16 10.05 16 8s-1.662-3.71-3.71-3.71c-2.05 0-3.713 1.66-3.713 3.71z"/></symbol>

<symbol id="github" fill-rule="evenodd" clip-rule="evenodd" stroke-linejoin="round" stroke-miterlimit="1.414"><path d="M8 0C3.58 0 0 3.582 0 8c0 3.535 2.292 6.533 5.47 7.59.4.075.547-.172.547-.385 0-.19-.007-.693-.01-1.36-2.226.483-2.695-1.073-2.695-1.073-.364-.924-.89-1.17-.89-1.17-.725-.496.056-.486.056-.486.803.056 1.225.824 1.225.824.714 1.223 1.873.87 2.33.665.072-.517.278-.87.507-1.07-1.777-.2-3.644-.888-3.644-3.953 0-.873.31-1.587.823-2.147-.09-.202-.36-1.015.07-2.117 0 0 .67-.215 2.2.82.64-.178 1.32-.266 2-.27.68.004 1.36.092 2 .27 1.52-1.035 2.19-.82 2.19-.82.43 1.102.16 1.915.08 2.117.51.56.82 1.274.82 2.147 0 3.073-1.87 3.75-3.65 3.947.28.24.54.73.54 1.48 0 1.07-.01 1.93-.01 2.19 0 .21.14.46.55.38C13.71 14.53 16 11.53 16 8c0-4.418-3.582-8-8-8"/></symbol>

<symbol id="googleplus" fill-rule="evenodd" clip-rule="evenodd" stroke-linejoin="round" stroke-miterlimit="1.414"><path d="M5.09 7.273v1.745h2.89c-.116.75-.873 2.197-2.887 2.197-1.737 0-3.155-1.44-3.155-3.215S3.353 4.785 5.09 4.785c.99 0 1.652.422 2.03.786l1.382-1.33c-.887-.83-2.037-1.33-3.41-1.33C2.275 2.91 0 5.19 0 8s2.276 5.09 5.09 5.09c2.94 0 4.888-2.065 4.888-4.974 0-.334-.036-.59-.08-.843H5.09zm10.91 0h-1.455V5.818H13.09v1.455h-1.454v1.454h1.455v1.455h1.46V8.727H16"/></symbol>

<symbol id="instagram" fill-rule="evenodd" clip-rule="evenodd" stroke-linejoin="round" stroke-miterlimit="1.414"><path d="M8 0C5.827 0 5.555.01 4.702.048 3.85.088 3.27.222 2.76.42c-.526.204-.973.478-1.417.923-.445.444-.72.89-.923 1.417-.198.51-.333 1.09-.372 1.942C.008 5.555 0 5.827 0 8s.01 2.445.048 3.298c.04.852.174 1.433.372 1.942.204.526.478.973.923 1.417.444.445.89.72 1.417.923.51.198 1.09.333 1.942.372.853.04 1.125.048 3.298.048s2.445-.01 3.298-.048c.852-.04 1.433-.174 1.942-.372.526-.204.973-.478 1.417-.923.445-.444.72-.89.923-1.417.198-.51.333-1.09.372-1.942.04-.853.048-1.125.048-3.298s-.01-2.445-.048-3.298c-.04-.852-.174-1.433-.372-1.942-.204-.526-.478-.973-.923-1.417-.444-.445-.89-.72-1.417-.923-.51-.198-1.09-.333-1.942-.372C10.445.008 10.173 0 8 0zm0 1.44c2.136 0 2.39.01 3.233.048.78.036 1.203.166 1.485.276.374.145.64.318.92.598.28.28.453.546.598.92.11.282.24.705.276 1.485.038.844.047 1.097.047 3.233s-.01 2.39-.05 3.233c-.04.78-.17 1.203-.28 1.485-.15.374-.32.64-.6.92-.28.28-.55.453-.92.598-.28.11-.71.24-1.49.276-.85.038-1.1.047-3.24.047s-2.39-.01-3.24-.05c-.78-.04-1.21-.17-1.49-.28-.38-.15-.64-.32-.92-.6-.28-.28-.46-.55-.6-.92-.11-.28-.24-.71-.28-1.49-.03-.84-.04-1.1-.04-3.23s.01-2.39.04-3.24c.04-.78.17-1.21.28-1.49.14-.38.32-.64.6-.92.28-.28.54-.46.92-.6.28-.11.7-.24 1.48-.28.85-.03 1.1-.04 3.24-.04zm0 2.452c-2.27 0-4.108 1.84-4.108 4.108 0 2.27 1.84 4.108 4.108 4.108 2.27 0 4.108-1.84 4.108-4.108 0-2.27-1.84-4.108-4.108-4.108zm0 6.775c-1.473 0-2.667-1.194-2.667-2.667 0-1.473 1.194-2.667 2.667-2.667 1.473 0 2.667 1.194 2.667 2.667 0 1.473-1.194 2.667-2.667 2.667zm5.23-6.937c0 .53-.43.96-.96.96s-.96-.43-.96-.96.43-.96.96-.96.96.43.96.96z"/></symbol>

<symbol id="linkedin" fill-rule="evenodd" clip-rule="evenodd" stroke-linejoin="round" stroke-miterlimit="1.414"><path d="M13.632 13.635h-2.37V9.922c0-.886-.018-2.025-1.234-2.025-1.235 0-1.424.964-1.424 1.96v3.778h-2.37V6H8.51v1.04h.03c.318-.6 1.092-1.233 2.247-1.233 2.4 0 2.845 1.58 2.845 3.637v4.188zM3.558 4.955c-.762 0-1.376-.617-1.376-1.377 0-.758.614-1.375 1.376-1.375.76 0 1.376.617 1.376 1.375 0 .76-.617 1.377-1.376 1.377zm1.188 8.68H2.37V6h2.376v7.635zM14.816 0H1.18C.528 0 0 .516 0 1.153v13.694C0 15.484.528 16 1.18 16h13.635c.652 0 1.185-.516 1.185-1.153V1.153C16 .516 15.467 0 14.815 0z" fill-rule="nonzero"/></symbol>

<symbol id="pinterest" fill-rule="evenodd" clip-rule="evenodd" stroke-linejoin="round" stroke-miterlimit="1.414"><path d="M8 0C3.582 0 0 3.582 0 8c0 3.39 2.108 6.285 5.084 7.45-.07-.633-.133-1.604.028-2.295.146-.625.938-3.977.938-3.977s-.24-.48-.24-1.188c0-1.11.646-1.943 1.448-1.943.683 0 1.012.513 1.012 1.127 0 .687-.436 1.713-.662 2.664-.19.797.4 1.445 1.185 1.445 1.42 0 2.514-1.498 2.514-3.662 0-1.91-1.376-3.25-3.342-3.25-2.276 0-3.61 1.71-3.61 3.47 0 .69.263 1.43.593 1.83.066.08.075.15.057.23-.06.25-.196.8-.223.91-.035.15-.115.18-.268.11C3.516 10.46 2.89 9 2.89 7.82c0-2.52 1.834-4.84 5.287-4.84 2.774 0 4.932 1.98 4.932 4.62 0 2.76-1.74 4.98-4.16 4.98-.81 0-1.57-.42-1.84-.92l-.5 1.9c-.18.698-.67 1.57-1 2.1.75.23 1.54.357 2.37.357 4.41 0 8-3.58 8-8s-3.59-8-8-8z" fill-rule="nonzero"/></symbol>

<symbol id="rss" fill-rule="evenodd" clip-rule="evenodd" stroke-linejoin="round" stroke-miterlimit="1.414"><path d="M12.8 16C12.8 8.978 7.022 3.2 0 3.2V0c8.777 0 16 7.223 16 16h-3.2zM2.194 11.61c1.21 0 2.195.985 2.195 2.196 0 1.21-.99 2.194-2.2 2.194C.98 16 0 15.017 0 13.806c0-1.21.983-2.195 2.194-2.195zM10.606 16h-3.11c0-4.113-3.383-7.497-7.496-7.497v-3.11c5.818 0 10.606 4.79 10.606 10.607z"/></symbol>

<symbol id="stackoverflow" class="svg-icon" xmlns="http://www.w3.org/2000/svg" fill-rule="evenodd" clip-rule="evenodd" stroke-linejoin="round" stroke-miterlimit="1.414"><path d="M12.658 14.577v-4.27h1.423V16H1.23v-5.693h1.42v4.27h10.006zm-8.583-1.423h7.16V11.73h-7.16v1.424zm.173-3.235l6.987 1.46.3-1.38L4.55 8.54l-.302 1.38zm.906-3.37l6.47 3.02.602-1.3-6.47-3.02-.602 1.29zm1.81-3.19l5.478 4.57.906-1.08L7.87 2.28l-.9 1.078zM10.502 0L9.338.863l4.27 5.735 1.164-.862L10.5 0z"/></symbol>

<symbol id="twitter" fill-rule="evenodd" clip-rule="evenodd" stroke-linejoin="round" stroke-miterlimit="1.414"><path d="M16 3.038c-.59.26-1.22.437-1.885.517.677-.407 1.198-1.05 1.443-1.816-.634.37-1.337.64-2.085.79-.598-.64-1.45-1.04-2.396-1.04-1.812 0-3.282 1.47-3.282 3.28 0 .26.03.51.085.75-2.728-.13-5.147-1.44-6.766-3.42C.83 2.58.67 3.14.67 3.75c0 1.14.58 2.143 1.46 2.732-.538-.017-1.045-.165-1.487-.41v.04c0 1.59 1.13 2.918 2.633 3.22-.276.074-.566.114-.865.114-.21 0-.41-.02-.61-.058.42 1.304 1.63 2.253 3.07 2.28-1.12.88-2.54 1.404-4.07 1.404-.26 0-.52-.015-.78-.045 1.46.93 3.18 1.474 5.04 1.474 6.04 0 9.34-5 9.34-9.33 0-.14 0-.28-.01-.42.64-.46 1.2-1.04 1.64-1.7z" fill-rule="nonzero"/></symbol>

<symbol id="researchgate" fill-rule="evenodd" clip-rule="evenodd" stroke-linejoin="round" stroke-miterlimit="1.414">
  <path transform="scale(0.175)" fill-rule="nonzero" d="M89 0H5C2.238 0 0 2.238 0 5v84c0 2.762 2.238 5 5 5h84c2.762 0 5-2.238 5-5V5C94 2.238 91.762 0 89 0z M45.064 73.975    H33.082c-0.563-0.756-0.922-1.623-1.074-2.605c-0.154-0.982-0.256-2.001-0.309-3.059L31.4 57.959    c-0.102-2.117-0.625-3.775-1.576-4.986c-0.948-1.211-2.551-1.814-4.799-1.814h-5.777v22.816H8.313V20.028H28.51    c4.557 0 8.101 1.146 10.632 3.438c2.529 2.293 3.796 5.78 3.796 10.465c0 3.626-0.734 6.586-2.203 8.878    c-1.467 2.292-3.744 3.765-6.832 4.421v0.15c1.872 0.252 3.363 0.717 4.479 1.396c1.112 0.683 1.975 1.662 2.581 2.945    c0.607 1.285 1.025 2.91 1.253 4.875s0.366 4.381 0.417 7.254c0.05 2.868 0.217 5.06 0.495 6.572    c0.277 1.51 0.923 2.542 1.937 3.098L45.064 73.975L45.064 73.975z M85.688 73.975h-8.051V68.99h-0.15    c-1.317 2.111-2.897 3.652-4.746 4.604c-1.85 0.96-4.061 1.438-6.643 1.438c-3.342 0-6.063-0.616-8.164-1.851    c-2.103-1.232-3.746-3.06-4.935-5.479c-1.188-2.416-1.989-5.402-2.392-8.95c-0.407-3.555-0.609-7.671-0.609-12.354    c0-4.536 0.291-8.515 0.875-11.939c0.581-3.425 1.58-6.284 2.999-8.574c1.416-2.29 3.291-4.018 5.618-5.177    c2.326-1.159 5.24-1.739 8.732-1.739c5.971 0 10.274 1.475 12.907 4.422c2.631 2.947 3.948 7.166 3.948 12.655H74.6    c0-0.956-0.113-1.975-0.342-3.062c-0.226-1.082-0.596-2.062-1.102-2.944c-0.504-0.881-1.149-1.611-1.936-2.193    c-0.783-0.577-1.734-0.868-2.848-0.868c-2.633 0-4.53 1.463-5.693 4.383c-1.166 2.921-1.746 7.758-1.746 14.509    c0 3.271 0.101 6.207 0.301 8.8c0.201 2.596 0.574 4.812 1.104 6.651c0.531 1.836 1.291 3.245 2.277 4.229    c0.988 0.979 2.264 1.473 3.836 1.473c0.656 0 1.377-0.178 2.162-0.53c0.785-0.351 1.52-0.879 2.201-1.584    c0.684-0.706 1.254-1.599 1.709-2.685c0.455-1.084 0.686-2.353 0.686-3.814v-5.516h-7.215v-8.011h17.691v29.089H85.688z"/>
  <path transform="scale(0.175)" fill-rule="nonzero" d="M24.41,28.038h-5.162v15.561h4.556c2.631,0,4.655-0.615,6.074-1.851c1.416-1.231,2.124-3.311,2.124-6.231    C32.002,30.532,29.474,28.038,24.41,28.038z"/>
</symbol>
  
<symbol id="googlescholar" fill-rule="evenodd" clip-rule="evenodd" stroke-linejoin="round" stroke-miterlimit="1.414">
  <path transform="scale(0.07)" d="M93.07,156.553c4.692,5.769,9.473,11.116,14.268,15.998c-15.603,14.058-29.657,21.284-38.699,21.284
	c-2.572,0-4.737-0.59-6.436-1.753c-7.013-4.805-7.569-20.004-1.132-40.499C70.924,153.93,81.719,155.607,93.07,156.553z
	 M84.192,85.024c-6.999,0.878-13.549,2.034-19.566,3.421c1.957,4.987,4.272,10.2,6.961,15.589c2.629-4.359,5.425-8.712,8.381-13.029
	C81.36,88.974,82.771,86.985,84.192,85.024z M230,115c0,63.514-51.486,115-115,115S0,178.514,0,115S51.486,0,115,0
	S230,51.486,230,115z M186.686,83.76c-2.418-0.91-4.936-1.768-7.541-2.574c0.808-2.605,1.522-5.167,2.138-7.676
	c5.313-21.652,2.654-37.402-7.487-44.349c-3.499-2.396-7.683-3.611-12.435-3.611c-12.843,0-29.428,9.083-46.361,24.505
	C98.067,34.633,81.482,25.55,68.639,25.55c-4.753,0-8.937,1.215-12.435,3.611c-10.142,6.947-12.801,22.697-7.487,44.349
	c0.616,2.509,1.331,5.072,2.139,7.677c-2.606,0.806-5.123,1.664-7.541,2.574C22.448,91.613,10.956,102.707,10.956,115
	c0,12.294,11.491,23.388,32.357,31.24c2.418,0.91,4.936,1.768,7.541,2.574c-0.808,2.605-1.522,5.167-2.138,7.676
	c-5.313,21.651-2.654,37.402,7.488,44.35c3.498,2.395,7.682,3.61,12.434,3.61c0.001,0,0,0,0.001,0
	c12.843,0,29.427-9.084,46.36-24.505c16.934,15.422,33.518,24.505,46.361,24.505c4.753,0,8.936-1.215,12.435-3.611
	c10.142-6.947,12.801-22.698,7.487-44.349c-0.616-2.509-1.331-5.071-2.138-7.676c2.606-0.806,5.123-1.664,7.541-2.574
	c20.866-7.852,32.357-18.946,32.357-31.24S207.552,91.612,186.686,83.76z M84.192,144.976c-1.421-1.961-2.832-3.95-4.224-5.982
	c-2.957-4.316-5.752-8.669-8.381-13.029c-2.689,5.389-5.004,10.602-6.961,15.589C70.643,142.941,77.194,144.098,84.192,144.976z
	 M175.642,91.216c-2.968,7.727-6.66,15.718-10.987,23.784c4.334,8.079,8.03,16.082,11.001,23.82
	c20.546-6.271,32.772-15.319,32.772-23.82c0-7.336-9.525-15.3-25.481-21.304C180.612,92.817,178.171,91.991,175.642,91.216z
	 M122.333,72.648c-2.459-2.772-4.908-5.395-7.333-7.858c-2.426,2.463-4.874,5.086-7.334,7.858c2.43-0.065,4.871-0.11,7.331-0.11
	C117.458,72.539,119.901,72.583,122.333,72.648z M107.666,157.352c2.46,2.772,4.908,5.396,7.334,7.858
	c2.426-2.463,4.874-5.086,7.333-7.858c-2.432,0.066-4.873,0.11-7.334,0.11C112.54,157.462,110.098,157.417,107.666,157.352z
	 M145.818,85.039c1.417,1.957,2.825,3.94,4.213,5.967c2.957,4.316,5.752,8.669,8.381,13.029c2.684-5.378,4.995-10.582,6.95-15.56
	C159.209,87.05,152.659,85.901,145.818,85.039z M136.93,156.553c-4.692,5.769-9.473,11.116-14.267,15.998
	c15.602,14.058,29.656,21.284,38.698,21.284c2.572,0,4.737-0.59,6.437-1.754c7.013-4.804,7.568-20.004,1.131-40.499
	C159.076,153.93,148.281,155.607,136.93,156.553z M54.344,91.18C33.797,97.451,21.571,106.498,21.571,115
	s12.226,17.549,32.772,23.82c2.971-7.738,6.667-15.741,11.001-23.82C61.011,106.921,57.315,98.918,54.344,91.18z M93.07,73.447
	c4.692-5.769,9.473-11.116,14.267-15.998C91.734,43.392,77.681,36.165,68.639,36.165c-2.572,0-4.737,0.59-6.436,1.754
	c-7.013,4.804-7.568,20.004-1.131,40.5C70.924,76.07,81.72,74.393,93.07,73.447z M158.414,125.966
	c-2.629,4.359-5.425,8.712-8.381,13.029c-1.392,2.032-2.803,4.021-4.224,5.982c6.998-0.878,13.549-2.035,19.566-3.421
	C163.417,136.568,161.102,131.355,158.414,125.966z M168.928,78.418c6.437-20.495,5.882-35.695-1.131-40.499
	c-1.699-1.163-3.864-1.754-6.436-1.754c-9.042,0-23.095,7.227-38.698,21.285c4.794,4.882,9.575,10.229,14.267,15.998
	C148.281,74.393,159.076,76.07,168.928,78.418z M88.726,132.996c-4.178-6.1-7.923-12.119-11.269-17.996
	c3.346-5.877,7.091-11.896,11.27-17.996c3.226-4.71,6.488-9.146,9.757-13.323c5.315-0.339,10.82-0.528,16.517-0.528
	c5.602,0,11.12,0.188,16.523,0.535c3.267,4.176,6.527,8.608,9.751,13.316c4.179,6.1,7.923,12.119,11.27,17.996
	c-3.346,5.877-7.091,11.896-11.269,17.996c-3.227,4.71-6.488,9.146-9.757,13.323c-5.315,0.339-10.821,0.528-16.518,0.528
	c-5.696,0-11.202-0.189-16.517-0.528C95.214,142.142,91.952,137.706,88.726,132.996z M101.289,112.982
	c0,7.571,6.139,13.711,13.711,13.711c7.572,0,13.711-6.14,13.711-13.711c0-7.572-6.139-13.711-13.711-13.711
	C107.428,99.271,101.289,105.41,101.289,112.982z" fill-rule="nonzero"/>
</symbol>
 
  
<symbol id="youtube" fill-rule="evenodd" clip-rule="evenodd" stroke-linejoin="round" stroke-miterlimit="1.414"><path d="M0 7.345c0-1.294.16-2.59.16-2.59s.156-1.1.636-1.587c.608-.637 1.408-.617 1.764-.684C3.84 2.36 8 2.324 8 2.324s3.362.004 5.6.166c.314.038.996.04 1.604.678.48.486.636 1.588.636 1.588S16 6.05 16 7.346v1.258c0 1.296-.16 2.59-.16 2.59s-.156 1.102-.636 1.588c-.608.638-1.29.64-1.604.678-2.238.162-5.6.166-5.6.166s-4.16-.037-5.44-.16c-.356-.067-1.156-.047-1.764-.684-.48-.487-.636-1.587-.636-1.587S0 9.9 0 8.605v-1.26zm6.348 2.73V5.58l4.323 2.255-4.32 2.24z"/></symbol>

<symbol id="mastodon" fill-rule="evenodd" clip-rule="evenodd" stroke-linejoin="round" stroke-miterlimit="1.414">
  <path transform="scale(0.07)" d="M211.80734 139.0875c-3.18125 16.36625-28.4925 34.2775-57.5625 37.74875-15.15875 1.80875-30.08375 3.47125-45.99875 2.74125-26.0275-1.1925-46.565-6.2125-46.565-6.2125 0 2.53375.15625 4.94625.46875 7.2025 3.38375 25.68625 25.47 27.225 46.39125 27.9425 21.11625.7225 39.91875-5.20625 39.91875-5.20625l.8675 19.09s-14.77 7.93125-41.08125 9.39c-14.50875.7975-32.52375-.365-53.50625-5.91875C9.23234 213.82 1.40609 165.31125.20859 116.09125c-.365-14.61375-.14-28.39375-.14-39.91875 0-50.33 32.97625-65.0825 32.97625-65.0825C49.67234 3.45375 78.20359.2425 107.86484 0h.72875c29.66125.2425 58.21125 3.45375 74.8375 11.09 0 0 32.975 14.7525 32.975 65.0825 0 0 .41375 37.13375-4.59875 62.915"/>
  <path transform="scale(0.07)" fill="#FFF" d="M177.50984 80.077v60.94125h-24.14375v-59.15c0-12.46875-5.24625-18.7975-15.74-18.7975-11.6025 0-17.4175 7.5075-17.4175 22.3525v32.37625H96.20734V85.42325c0-14.845-5.81625-22.3525-17.41875-22.3525-10.49375 0-15.74 6.32875-15.74 18.7975v59.15H38.90484V80.077c0-12.455 3.17125-22.3525 9.54125-29.675 6.56875-7.3225 15.17125-11.07625 25.85-11.07625 12.355 0 21.71125 4.74875 27.8975 14.2475l6.01375 10.08125 6.015-10.08125c6.185-9.49875 15.54125-14.2475 27.8975-14.2475 10.6775 0 19.28 3.75375 25.85 11.07625 6.36875 7.3225 9.54 17.22 9.54 29.675"/>
</symbol>


</svg>
